<?xml version="1.0" encoding="UTF-8" standalone="no"?>
<!-- Created with Inkscape (http://www.inkscape.org/) -->

<svg
   xmlns:dc="http://purl.org/dc/elements/1.1/"
   xmlns:cc="http://creativecommons.org/ns#"
   xmlns:rdf="http://www.w3.org/1999/02/22-rdf-syntax-ns#"
   xmlns:svg="http://www.w3.org/2000/svg"
   xmlns="http://www.w3.org/2000/svg"
   xmlns:sodipodi="http://sodipodi.sourceforge.net/DTD/sodipodi-0.dtd"
   xmlns:inkscape="http://www.inkscape.org/namespaces/inkscape"
   version="1.1"
   id="svg2"
   xml:space="preserve"
   width="400.74667"
   height="125.34667"
   viewBox="0 0 400.74667 125.34667"
   sodipodi:docname="paho_logo.svg"
   inkscape:version="0.92.2 (5c3e80d, 2017-08-06)"><metadata
     id="metadata8"><rdf:RDF><cc:Work
         rdf:about=""><dc:format>image/svg+xml</dc:format><dc:type
           rdf:resource="http://purl.org/dc/dcmitype/StillImage" /><dc:title></dc:title></cc:Work></rdf:RDF></metadata><defs
     id="defs6"><clipPath
       clipPathUnits="userSpaceOnUse"
       id="clipPath20"><path
         d="M 0,0 H 3005.64 V 940 H 0 Z"
         id="path18"
         inkscape:connector-curvature="0" /></clipPath></defs><sodipodi:namedview
     pagecolor="#ffffff"
     bordercolor="#666666"
     borderopacity="1"
     objecttolerance="10"
     gridtolerance="10"
     guidetolerance="10"
     inkscape:pageopacity="0"
     inkscape:pageshadow="2"
     inkscape:window-width="1143"
     inkscape:window-height="693"
     id="namedview4"
     showgrid="false"
     inkscape:zoom="0.8858464"
     inkscape:cx="202.63106"
     inkscape:cy="58.157881"
     inkscape:window-x="572"
     inkscape:window-y="168"
     inkscape:window-maximized="0"
     inkscape:current-layer="g10" /><g
     id="g10"
     inkscape:groupmode="layer"
     inkscape:label="ink_ext_XXXXXX"
     transform="matrix(1.3333333,0,0,-1.3333333,0,125.34667)"><g
       id="g12"
       transform="scale(0.1)"><g
         id="g14"><g
           id="g16"
           clip-path="url(#clipPath20)"><path
             d="m 273.391,259.336 c 61.531,0 113.394,50.098 113.394,138.887 0,85.261 -45.711,140.644 -111.64,140.644 -58.016,0 -112.516,-42.195 -112.516,-141.523 0,-69.453 36.922,-138.008 110.762,-138.008 z M 54.5039,509.859 c 0,13.184 -7.0351,19.34 -19.3398,19.34 H 0 v 94.938 h 99.3359 c 41.3161,0 56.2621,-18.461 56.2621,-43.078 0,-10.547 0,-17.579 0,-17.579 h 1.757 c 0,0 37.801,71.204 142.411,71.204 121.308,0 199.543,-95.817 199.543,-234.704 0,-142.402 -87.903,-234.707 -205.696,-234.707 -88.789,0 -128.347,58.887 -128.347,58.887 h -1.758 c 0,0 1.758,-15.82 1.758,-38.672 L 165.266,0 H 54.5039 v 509.859"
             style="fill:#f7a61f;fill-opacity:1;fill-rule:nonzero;stroke:none"
             id="path22"
             inkscape:connector-curvature="0" /><path
             d="m 688.34,252.305 c 59.773,0 101.973,63.281 101.973,117.793 v 10.547 h -19.344 c -58.02,0 -150.317,-7.911 -150.317,-70.332 0,-29.883 21.977,-58.008 67.688,-58.008 z m 86.14,204.804 h 14.075 v 3.516 c 0,64.176 -25.496,87.91 -82.637,87.91 -20.215,0 -59.773,-5.273 -59.773,-29.887 V 494.91 H 542.41 v 47.473 c 0,83.512 117.793,92.301 164.387,92.301 149.441,0 193.391,-78.235 193.391,-178.454 V 289.219 c 0,-12.305 7.039,-19.336 19.343,-19.336 h 35.157 V 175.82 H 854.48 c -41.316,0 -57.136,22.852 -57.136,49.219 0,11.426 0.879,19.336 0.879,19.336 h -1.758 c 0,0 -34.285,-79.102 -135.379,-79.102 -79.992,0 -152.949,50.098 -152.949,139.766 0,140.645 193.386,152.07 266.343,152.07"
             style="fill:#e04828;fill-opacity:1;fill-rule:nonzero;stroke:none"
             id="path24"
             inkscape:connector-curvature="0" /><path
             d="m 996.914,685.668 c 0,13.187 -7.031,19.344 -19.336,19.344 H 942.41 v 94.933 h 106.37 c 41.32,0 59.77,-18.457 59.77,-58.894 V 583.699 c 0,-21.976 -1.75,-37.801 -1.75,-37.801 h 1.75 c 21.11,43.079 76.48,88.786 153.85,88.786 100.21,0 156.46,-51.868 156.46,-170.539 V 289.219 c 0,-12.305 7.03,-19.336 19.34,-19.336 h 35.17 V 175.82 h -106.36 c -41.33,0 -58.91,17.578 -58.91,59.766 v 205.703 c 0,54.5 -14.94,91.426 -71.21,91.426 -58.89,0 -104.6,-38.684 -121.3,-93.184 -5.28,-17.578 -7.04,-36.914 -7.04,-58.008 V 175.82 H 996.914 v 509.848"
             style="fill:#67ba92;fill-opacity:1;fill-rule:nonzero;stroke:none"
             id="path26"
             inkscape:connector-curvature="0" /><path
             d="m 1719.55,260.215 c 72.95,0 133.61,56.25 133.61,139.765 0,82.625 -60.66,139.766 -133.61,139.766 -72.09,0 -132.75,-57.141 -132.75,-139.766 0,-83.515 60.66,-139.765 132.75,-139.765 z m 0,374.469 c 137.13,0 246.13,-97.575 246.13,-234.704 0,-138.007 -109,-234.707 -246.13,-234.707 -136.27,0 -245.28,96.7 -245.28,234.707 0,137.129 109.01,234.704 245.28,234.704"
             style="fill:#43352b;fill-opacity:1;fill-rule:nonzero;stroke:none"
             id="path28"
             inkscape:connector-curvature="0" /><path
             d="m 2659.38,875.152 c 45.49,-13.007 81.23,-25.988 107.22,-40.625 22.76,-13.007 48.74,-30.859 74.74,-51.992 24.38,-21.113 47.12,-45.488 66.62,-76.359 21.1,-29.238 34.11,-63.348 40.59,-102.352 8.13,-56.875 4.89,-105.597 -11.34,-144.605 -16.26,-39.004 -38.99,-71.485 -68.25,-94.219 -30.87,-24.395 -63.34,-42.227 -97.49,-55.254 -34.12,-11.367 -66.6,-19.473 -97.47,-24.355 -29.24,-3.243 -51.98,-6.504 -66.61,-6.504 -53.6,0 -107.21,8.144 -159.22,22.754 -53.62,14.629 -103.98,37.343 -149.46,66.582 -43.88,30.898 -81.25,68.242 -108.87,113.726 -16.23,27.637 -27.61,52.012 -35.73,78.008 -8.12,24.363 -13,48.731 -13,71.484 1.62,45.497 16.24,89.344 45.48,128.348 27.62,40.625 69.87,71.484 125.11,95.84 53.64,26.016 116.98,37.383 190.1,37.383 60.11,0 112.09,-6.504 157.58,-17.86 z m 113.74,4.871 c -30.88,14.61 -71.5,27.618 -121.86,40.606 -51.99,11.387 -112.11,17.871 -177.1,19.492 -45.48,0 -89.35,-3.242 -129.97,-12.976 -42.23,-8.137 -77.97,-21.125 -112.1,-39.004 -16.24,-8.118 -35.74,-19.504 -58.48,-35.735 -21.13,-16.258 -42.24,-35.761 -65,-60.105 -19.5,-22.746 -37.37,-50.391 -50.36,-82.871 -14.62,-32.492 -22.75,-68.254 -22.75,-107.239 1.64,-68.23 17.89,-129.988 52,-183.578 29.24,-45.508 66.61,-86.113 110.48,-118.613 l -71.49,-191.68 246.94,100.703 c 6.52,-1.601 13,-3.242 17.87,-4.882 63.37,-19.473 123.49,-27.598 181.96,-29.239 76.35,1.641 146.23,13.008 207.99,35.723 58.47,24.414 107.21,56.914 146.21,99.121 38.98,43.867 63.36,94.238 73.09,154.34 8.14,56.867 6.52,108.879 -4.85,154.348 -13,45.496 -30.88,84.5 -56.87,118.613 -22.76,35.75 -50.37,64.988 -79.62,87.742 -29.24,22.715 -58.48,40.606 -86.09,55.234"
             style="fill:#d7cea9;fill-opacity:1;fill-rule:nonzero;stroke:none"
             id="path30"
             inkscape:connector-curvature="0" /></g></g></g></g></svg>